<?xml version="1.0" standalone="no"?>
<!DOCTYPE svg PUBLIC "-//W3C//DTD SVG 20010904//EN"
 "http://www.w3.org/TR/2001/REC-SVG-20010904/DTD/svg10.dtd">
<svg version="1.0" xmlns="http://www.w3.org/2000/svg"
 width="1400.000000pt" height="1400.000000pt" viewBox="0 0 1400.000000 1400.000000"
 preserveAspectRatio="xMidYMid meet">

<g transform="translate(0.000000,1400.000000) scale(0.100000,-0.100000)"
fill="#000000" stroke="none">
<path d="M6720 12594 c-19 -2 -102 -8 -185 -14 -897 -66 -1814 -378 -2580
-878 -974 -636 -1742 -1569 -2158 -2622 -262 -664 -397 -1359 -397 -2055 0
-1518 574 -2908 1645 -3980 399 -400 811 -707 1322 -984 437 -237 981 -432
1505 -540 626 -129 1341 -146 1981 -46 581 91 1099 256 1632 520 615 305 1157
711 1617 1211 397 433 663 821 918 1339 310 629 475 1225 552 1985 17 167 17
753 0 940 -96 1074 -471 2059 -1100 2889 -1009 1332 -2506 2136 -4156 2231
-163 9 -511 11 -596 4z m830 -358 c209 -25 435 -62 587 -96 1225 -271 2307
-972 3068 -1985 608 -809 954 -1733 1035 -2765 14 -175 14 -619 0 -785 -72
-875 -333 -1667 -788 -2395 -205 -328 -432 -610 -732 -911 -447 -448 -857
-744 -1405 -1014 -590 -291 -1244 -471 -1910 -526 -215 -18 -806 -6 -1018 20
-1074 132 -2022 549 -2827 1244 -544 469 -989 1049 -1304 1698 -221 454 -380
962 -455 1454 -50 325 -56 411 -56 835 0 434 7 536 61 854 160 960 570 1836
1203 2571 120 139 433 452 571 569 485 413 1024 729 1612 945 399 145 867 251
1288 290 63 6 131 13 150 15 19 2 204 3 410 1 270 -2 413 -7 510 -19z"/>
<path d="M6690 11290 c-579 -50 -1087 -188 -1576 -428 -263 -130 -497 -274
-721 -444 -332 -252 -657 -589 -905 -938 -775 -1095 -993 -2513 -583 -3791
118 -364 319 -781 527 -1089 253 -374 610 -753 959 -1018 994 -752 2257 -1042
3459 -796 1297 266 2387 1095 2979 2264 559 1103 622 2363 175 3513 -319 821
-885 1523 -1619 2011 -194 128 -276 176 -461 269 -465 233 -944 374 -1474 433
-161 18 -613 26 -760 14z m560 -2816 c192 -32 317 -90 412 -192 100 -109 152
-255 167 -472 9 -128 0 -318 -18 -403 -40 -177 -134 -303 -278 -371 -26 -13
-125 -49 -220 -80 -269 -90 -270 -91 -280 -335 l-6 -161 -256 2 -256 3 -3 155
c-3 173 9 329 33 407 37 123 132 197 335 262 252 79 305 111 330 198 18 65 24
214 11 288 -32 182 -120 214 -561 202 -199 -6 -474 -26 -567 -42 l-33 -6 0
245 0 244 28 6 c95 20 494 62 672 70 136 6 393 -4 490 -20z m-160 -2684 l0
-290 -315 0 -315 0 0 290 0 290 315 0 315 0 0 -290z"/>
</g>
</svg>
